<?xml version="1.0" encoding="UTF-8"?>
<svg width="24px" height="24px" viewBox="0 0 24 24" version="1.1" xmlns="http://www.w3.org/2000/svg">
  <!-- Generator: Sketch 51.2 (57519) - http://www.bohemiancoding.com/sketch -->
  <title>noun_Download_1997930 Copy</title>
  <desc>Created with Sketch.</desc>
  <defs></defs>
  <g id="Page-1" stroke="none" stroke-width="1" fill="none" fill-rule="evenodd">
    <g id="DESKTOP-LOGIN-5" transform="translate(-1300.000000, -28.000000)" fill="#4A4350">
      <g id="noun_Download_1997930" transform="translate(1300.000000, 28.000000)">
        <g id="Shape">
          <path
            d="M22.6813187,24 L1.31868132,24 C0.602825746,24 0,23.477551 0,22.8571429 C0,22.2367347 0.602825746,21.7142857 1.31868132,21.7142857 L22.6813187,21.7142857 C23.3971743,21.7142857 24,22.2367347 24,22.8571429 C24,23.477551 23.3971743,24 22.6813187,24 Z"
            fill-rule="nonzero"></path>
          <path
            d="M12,18.2857143 C11.3485714,18.2857143 10.8,17.7198121 10.8,17.0478033 L10.8,1.23791103 C10.8,0.565902183 11.3485714,0 12,0 C12.6514286,0 13.2,0.565902183 13.2,1.23791103 L13.2,17.0478033 C13.2,17.7198121 12.6514286,18.2857143 12,18.2857143 Z"
            fill-rule="nonzero"></path>
          <path
            d="M11.9615385,18.2857143 C11.6384615,18.2857143 11.3153846,18.1833689 11.0641026,17.9445629 L5.17692308,12.315565 C4.67435897,11.8379531 4.67435897,11.08742 5.17692308,10.6439232 C5.67948718,10.1663113 6.46923077,10.1663113 6.93589744,10.6439232 L12.8230769,16.238806 C13.325641,16.7164179 13.325641,17.466951 12.8230769,17.9104478 C12.6076923,18.1833689 12.2846154,18.2857143 11.9615385,18.2857143 Z"
            fill-rule="nonzero"></path>
          <path
            d="M12.0689362,18.2857143 C11.747234,18.2857143 11.4255319,18.1833689 11.1753191,17.9445629 C10.6748936,17.466951 10.6748936,16.7164179 11.1753191,16.2729211 L17.0731915,10.6439232 C17.573617,10.1663113 18.36,10.1663113 18.8246809,10.6439232 C19.3251064,11.1215352 19.3251064,11.8720682 18.8246809,12.315565 L12.9625532,17.9445629 C12.7123404,18.1833689 12.3906383,18.2857143 12.0689362,18.2857143 Z"
            fill-rule="nonzero"></path>
        </g>
      </g>
    </g>
  </g>
</svg>
