<svg xmlns="http://www.w3.org/2000/svg" viewBox="0 0 409.9 410.9">
  <title>logout</title>
  <g id="Layer_2" data-name="Layer 2">
    <g id="Layer_1-2" data-name="Layer 1">
      <path d="M88.7,177.8a6.8,6.8,0,0,0-6.8,6.8v41a6.9,6.9,0,0,0,13.7,0v-41a6.8,6.8,0,0,0-6.9-6.8Z"
            style="fill#8F848F"/>
      <path
        d="M89.5,2.2,24.9,28C6.8,34.7,0,43.9,0,61.7V348.5c0,17.8,6.8,27,24.8,33.7l64.8,25.9a27.2,27.2,0,0,0,9.6,1.8c13.7,0,23.7-11.4,23.7-27.3V27.6c0-19.4-15.5-32.2-33.4-25.4Zm19.7,380.4c0,8.2-4,13.7-10,13.7a15,15,0,0,1-4.6-.9l-64.9-26c-12.9-4.8-16-8.9-16-20.9V61.7c0-12,3.1-16.1,16.1-20.9L94.4,14.9a14.5,14.5,0,0,1,4.8-.9c6,0,10,5.4,10,13.6Z"
        style="fill:#8F848F"/>
      <rect width="409.9" height="410.88" style="fill:none"/>
      <path
        d="M142.5,41.2h96.4a20.5,20.5,0,0,1,20.5,20.5V164.1a6.9,6.9,0,0,0,13.7,0V61.7a34.2,34.2,0,0,0-34.2-34.1H142.5a6.8,6.8,0,0,0,0,13.6Z"
        style="fill:#8F848F"/>
      <path
        d="M266.2,239.2a6.9,6.9,0,0,0-6.8,6.8V348.4a20.5,20.5,0,0,1-20.5,20.5H143.4a6.9,6.9,0,1,0,0,13.7h95.5a34.2,34.2,0,0,0,34.2-34.2V246a6.9,6.9,0,0,0-6.9-6.8Z"
        style="fill:#8F848F"/>
      <path
        d="M409.1,202.5a9.1,9.1,0,0,0-1.5-2.3L339.3,132a6.8,6.8,0,0,0-9.6,9.6l56.6,56.7H157a6.8,6.8,0,1,0,0,13.6H386.3l-56.6,56.6a6.8,6.8,0,0,0,0,9.7,6.9,6.9,0,0,0,4.8,2,6.7,6.7,0,0,0,4.8-2l68.3-68.3a8.6,8.6,0,0,0,1.5-2.2,6.7,6.7,0,0,0,0-5.2Z"
        style="fill:#8F848F"/>
    </g>
  </g>
</svg>
