<?xml version="1.0" encoding="UTF-8"?>
<svg width="24px" height="24px" viewBox="0 0 24 24" version="1.1" xmlns="http://www.w3.org/2000/svg">
  <!-- Generator: Sketch 51.2 (57519) - http://www.bohemiancoding.com/sketch -->
  <title>noun_Magnifying Glass_1997707 Copy</title>
  <desc>Created with Sketch.</desc>
  <defs></defs>
  <g id="Page-1" stroke="none" stroke-width="1" fill="none" fill-rule="evenodd">
    <g id="DESKTOP-LOGIN-5" transform="translate(-1247.000000, -28.000000)" fill="#4A4350" stroke="#4A4350">
      <g id="noun_Magnifying-Glass_1997707"
         transform="translate(1259.000000, 40.000000) rotate(-270.000000) translate(-1259.000000, -40.000000) translate(1248.000000, 29.000000)">
        <g id="Shape">
          <path
            d="M0,8.51612903 C0,6.25935484 0.897741935,4.09129032 2.49451613,2.49451613 C4.09129032,0.897741935 6.25935484,0 8.51612903,0 C10.7729032,0 12.9409677,0.897741935 14.5377419,2.49451613 C16.1345161,4.09129032 17.0322581,6.25935484 17.0322581,8.51612903 C17.0322581,10.7729032 16.1345161,12.9409677 14.5377419,14.5377419 C12.9409677,16.1345161 10.7729032,17.0322581 8.51612903,17.0322581 C6.25935484,17.0322581 4.09129032,16.1345161 2.49451613,14.5377419 C0.897741935,12.9409677 0,10.7729032 0,8.51612903 Z M0.709677419,8.51612903 C0.709677419,6.44741935 1.53290323,4.46032258 2.99483871,2.99483871 C4.46032258,1.53290323 6.44741935,0.709677419 8.51612903,0.709677419 C10.5848387,0.709677419 12.5719355,1.53290323 14.0374194,2.99483871 C15.4993548,4.46032258 16.3225806,6.44741935 16.3225806,8.51612903 C16.3225806,10.5848387 15.4993548,12.5719355 14.0374194,14.0374194 C12.5719355,15.4993548 10.5848387,16.3225806 8.51612903,16.3225806 C6.44741935,16.3225806 4.46032258,15.4993548 2.99483871,14.0374194 C1.53290323,12.5719355 0.709677419,10.5848387 0.709677419,8.51612903 Z"></path>
          <path
            d="M21.3932258,21.8970968 L14.2964516,14.8003226 C14.2325806,14.7329032 14.1935484,14.6441935 14.1935484,14.5483871 C14.1935484,14.4525806 14.2325806,14.363871 14.2964516,14.2964516 C14.363871,14.2325806 14.4525806,14.1935484 14.5483871,14.1935484 C14.6441935,14.1935484 14.7329032,14.2325806 14.8003226,14.2964516 L21.8970968,21.3932258 C21.9609677,21.4606452 22,21.5493548 22,21.6451613 C22,21.7409677 21.9609677,21.8296774 21.8970968,21.8970968 C21.8296774,21.9609677 21.7409677,22 21.6451613,22 C21.5493548,22 21.4606452,21.9609677 21.3932258,21.8970968 Z"
            fill-rule="nonzero"></path>
        </g>
      </g>
    </g>
  </g>
</svg>
