<?xml version="1.0" encoding="UTF-8"?>
<svg width="28px" height="20px" viewBox="0 0 28 20" version="1.1" xmlns="http://www.w3.org/2000/svg">
  <!-- Generator: Sketch 51.2 (57519) - http://www.bohemiancoding.com/sketch -->
  <title>noun_Settings_159245</title>
  <desc>Created with Sketch.</desc>
  <defs></defs>
  <g id="Page-1" stroke="none" stroke-width="1" fill="none" fill-rule="evenodd">
    <g id="DESKTOP-LOGIN-1" transform="translate(-999.000000, -29.000000)" fill="#4A4350">
      <g id="noun_Settings_159245" transform="translate(999.000000, 29.000000)">
        <g>
          <circle id="Oval" fill-rule="nonzero" cx="20.6666667" cy="2" r="2"></circle>
          <path
            d="M24.1733333,2 C24.1733333,2.23333333 24.1422222,2.46666667 24.1111111,2.66666667 L27.3777778,2.66666667 C27.72,2.66666667 28,2.36666667 28,2 C28,1.63333333 27.72,1.33333333 27.3777778,1.33333333 L24.1111111,1.33333333 C24.1422222,1.53333333 24.1733333,1.76666667 24.1733333,2 Z M17.36,2 C17.36,1.76666667 17.3911111,1.53333333 17.4222222,1.33333333 L0.622222222,1.33333333 C0.28,1.33333333 0,1.63333333 0,2 C0,2.36666667 0.28,2.66666667 0.622222222,2.66666667 L17.4222222,2.66666667 C17.3911111,2.46666667 17.36,2.23333333 17.36,2 Z"
            id="Shape" fill-rule="nonzero"></path>
          <circle id="Oval" fill-rule="nonzero" cx="6" cy="10" r="2"></circle>
          <path
            d="M9.86222222,10 C9.86222222,10.2333333 9.83111111,10.4666667 9.8,10.6666667 L27.3777778,10.6666667 C27.72,10.6666667 28,10.3666667 28,10 C28,9.63333333 27.72,9.33333333 27.3777778,9.33333333 L9.8,9.33333333 C9.83111111,9.53333333 9.86222222,9.76666667 9.86222222,10 Z M3.08,10 C3.08,9.76666667 3.11111111,9.53333333 3.14222222,9.33333333 L0.622222222,9.33333333 C0.28,9.33333333 0,9.63333333 0,10 C0,10.3666667 0.28,10.6666667 0.622222222,10.6666667 L3.14222222,10.6666667 C3.08,10.4666667 3.08,10.2333333 3.08,10 Z"
            id="Shape" fill-rule="nonzero"></path>
          <circle id="Oval" fill-rule="nonzero" cx="14" cy="18" r="2"></circle>
          <path
            d="M17.92,18 C17.92,18.2333333 17.8888889,18.4666667 17.8577778,18.6666667 L27.3777778,18.6666667 C27.72,18.6666667 28,18.3666667 28,18 C28,17.6333333 27.72,17.3333333 27.3777778,17.3333333 L17.8577778,17.3333333 C17.92,17.5333333 17.92,17.7666667 17.92,18 Z M11.1377778,18 C11.1377778,17.7666667 11.1688889,17.5333333 11.2,17.3333333 L0.622222222,17.3333333 C0.28,17.3333333 0,17.6333333 0,18 C0,18.3666667 0.28,18.6666667 0.622222222,18.6666667 L11.2,18.6666667 C11.1688889,18.4666667 11.1377778,18.2333333 11.1377778,18 Z"
            id="Shape" fill-rule="nonzero"></path>
        </g>
      </g>
    </g>
  </g>
</svg>
