<?xml version="1.0" encoding="UTF-8"?>
<svg xmlns:xlink="http://www.w3.org/1999/xlink" width="44px" height="44px" viewBox="0 0 44 44" version="1.1"
     xmlns="http://www.w3.org/2000/svg">
  <!-- Generator: Sketch 51.2 (57519) - http://www.bohemiancoding.com/sketch -->
  <title>Combined Shape Copy</title>
  <desc>Created with Sketch.</desc>
  <defs>
    <path
      d="M44.3546652,19.0099036 L49.5247541,21.5921151 C49.8637537,21.7614291 50.0779327,22.1078082 50.0779327,22.4867383 L50.0779327,49.4878878 C50.0779327,49.8660889 49.8645683,50.2119324 49.5265634,50.381605 L44.3564745,52.9769009 C43.8628881,53.2246728 43.2618984,53.0254008 43.0141265,52.5318144 C42.9442386,52.3925906 42.9078438,52.2389643 42.9078438,52.0831837 L42.9078438,19.9045268 C42.9078438,19.3522421 43.355559,18.9045268 43.9078438,18.9045268 C44.0629407,18.9045268 44.2159118,18.940603 44.3546652,19.0099036 Z M35.0644597,24.7627637 L40.1431434,27.3033454 C40.4818314,27.4727721 40.6957551,27.8189836 40.6957551,28.1976853 L40.6957551,43.2586623 C40.6957551,43.6374777 40.4817042,43.9837728 40.1428609,44.1531433 L35.0641772,46.6917199 C34.570169,46.9386496 33.9695201,46.7383529 33.7225904,46.2443446 C33.6531976,46.1055172 33.6170715,45.9524432 33.6170715,45.7972388 L33.6170715,25.6571035 C33.6170715,25.1048188 34.0647867,24.6571035 34.6170715,24.6571035 C34.7723826,24.6571035 34.9255589,24.6932793 35.0644597,24.7627637 Z M61.8405291,36.8442943 L53.6459835,40.9433288 C53.1520475,41.190403 52.55134,40.990282 52.3042658,40.496346 C52.2347882,40.3574505 52.1986161,40.2042818 52.1986161,40.0489786 L52.1986161,31.8509095 C52.1986161,31.2986248 52.6463313,30.8509095 53.1986161,30.8509095 C53.3539193,30.8509095 53.507088,30.8870817 53.6459835,30.9565593 L61.8405291,35.0555938 C62.3344651,35.302668 62.5345861,35.9033754 62.2875119,36.3973115 C62.1907676,36.590717 62.0339346,36.74755 61.8405291,36.8442943 Z"
      id="path-1"></path>
    <filter x="-36.5%" y="-30.7%" width="173.0%" height="161.4%" filterUnits="objectBoundingBox" id="filter-2">
      <feOffset dx="0" dy="0" in="SourceAlpha" result="shadowOffsetOuter1"></feOffset>
      <feGaussianBlur stdDeviation="3.5" in="shadowOffsetOuter1" result="shadowBlurOuter1"></feGaussianBlur>
      <feColorMatrix values="0 0 0 0 0   0 0 0 0 0   0 0 0 0 0  0 0 0 0.0524796196 0" type="matrix"
                     in="shadowBlurOuter1"></feColorMatrix>
    </filter>
  </defs>
  <g id="Page-1" stroke="none" stroke-width="1" fill="none" fill-rule="evenodd">
    <g id="DESKTOP-AUTH-0" transform="translate(-23.000000, -15.000000)" fill-rule="nonzero">
      <g id="Combined-Shape-Copy"
         transform="translate(48.005226, 35.993964) rotate(-30.000000) translate(-48.005226, -35.993964) ">
        <use fill="black" fill-opacity="1" filter="url(#filter-2)" xlink:href="#path-1"></use>
        <use fill="#384064" xlink:href="#path-1"></use>
      </g>
    </g>
  </g>
</svg>
