<?xml version="1.0" encoding="UTF-8"?>
<svg xmlns:xlink="http://www.w3.org/1999/xlink" width="27px" height="27px" viewBox="0 0 27 27" version="1.1"
     xmlns="http://www.w3.org/2000/svg">
  <!-- Generator: Sketch 51.2 (57519) - http://www.bohemiancoding.com/sketch -->
  <title>Combined Shape</title>
  <desc>Created with Sketch.</desc>
  <defs>
    <path
      d="M21.5904474,7.22311518 L22.865785,7.86008513 C23.2047846,8.02939916 23.4189636,8.37577831 23.4189636,8.75470833 L23.4189636,20.4179926 C23.4189636,20.7961938 23.2055992,21.1420372 22.8675943,21.3117099 L21.5922568,21.9519075 C21.0986704,22.1996794 20.4976807,22.0004073 20.2499088,21.5068209 C20.1800208,21.3675971 20.143626,21.2139708 20.143626,21.0581902 L20.143626,8.11773837 C20.143626,7.56545362 20.5913413,7.11773837 21.143626,7.11773837 C21.298723,7.11773837 21.4516941,7.15381454 21.5904474,7.22311518 Z M17.3469364,9.85183109 L18.5805196,10.4689238 C18.9192076,10.6383505 19.1331313,10.984562 19.1331313,11.3632637 L19.1331313,17.571807 C19.1331313,17.9506225 18.9190804,18.2969175 18.5802371,18.4662881 L17.3466539,19.0828938 C16.8526457,19.3298234 16.2519968,19.1295267 16.0050671,18.6355184 C15.9356743,18.4966911 15.8995482,18.343617 15.8995482,18.1884127 L15.8995482,10.7461709 C15.8995482,10.1938862 16.3472634,9.74617092 16.8995482,9.74617092 C17.0548593,9.74617092 17.2080356,9.78234673 17.3469364,9.85183109 Z M27.8209905,15.4632508 L25.8350713,16.4566373 C25.3411353,16.7037115 24.7404278,16.5035905 24.4933536,16.0096545 C24.4238761,15.870759 24.3877039,15.7175903 24.3877039,15.5622871 L24.3877039,13.575514 C24.3877039,13.0232292 24.8354192,12.575514 25.3877039,12.575514 C25.5430071,12.575514 25.6961759,12.6116861 25.8350713,12.6811637 L27.8209905,13.6745502 C28.3149265,13.9216244 28.5150476,14.5223319 28.2679734,15.0162679 C28.171229,15.2096734 28.014396,15.3665064 27.8209905,15.4632508 Z"
      id="path-1"></path>
    <filter x="-84.2%" y="-70.3%" width="268.3%" height="240.6%" filterUnits="objectBoundingBox" id="filter-2">
      <feOffset dx="0" dy="0" in="SourceAlpha" result="shadowOffsetOuter1"></feOffset>
      <feGaussianBlur stdDeviation="3.5" in="shadowOffsetOuter1" result="shadowBlurOuter1"></feGaussianBlur>
      <feColorMatrix values="0 0 0 0 0   0 0 0 0 0   0 0 0 0 0  0 0 0 0.0524796196 0" type="matrix"
                     in="shadowBlurOuter1"></feColorMatrix>
    </filter>
  </defs>
  <g id="Page-1" stroke="none" stroke-width="1" fill="none" fill-rule="evenodd">
    <g id="MOBILE-AUTH-0" transform="translate(-8.000000, -2.000000)" fill-rule="nonzero">
      <g id="Combined-Shape"
         transform="translate(22.136695, 14.588073) rotate(-30.000000) translate(-22.136695, -14.588073) ">
        <use fill="black" fill-opacity="1" filter="url(#filter-2)" xlink:href="#path-1"></use>
        <use fill="#FFFFFF" xlink:href="#path-1"></use>
      </g>
    </g>
  </g>
</svg>
